<?xml version="1.0" encoding="utf-8"?>
<!-- Generator: Adobe Illustrator 23.0.1, SVG Export Plug-In . SVG Version: 6.00 Build 0)  -->
<svg version="1.1" id="Layer_1" xmlns="http://www.w3.org/2000/svg" xmlns:xlink="http://www.w3.org/1999/xlink" x="0px" y="0px"
	 viewBox="0 0 580 600" style="enable-background:new 0 0 580 600;" xml:space="preserve">
<style type="text/css">
	.st0{fill:none;stroke:#0000FF;stroke-dasharray:0.75,2;}
	.st1{stroke:#000000;}
	.st2{fill:none;stroke:#000000;}
	.st3{fill:none;stroke:#FF0000;stroke-dasharray:0.75,2;}
	.st4{fill:#C6C6C6;stroke:#000000;}
	.st5{fill:none;stroke:#00FF00;stroke-dasharray:4,2,2,4;}
	.st6{fill:none;stroke:#FFFFFF;stroke-dasharray:4,2,2,4;}
	.st7{fill:none;stroke:#000000;stroke-dasharray:4,2,2,4;}
	.st8{fill:none;stroke:#FFFFFF;}
	.st9{fill:none;stroke:#000000;stroke-dasharray:4,2;}
	.st10{enable-background:new    ;}
	.st11{font-family:'SourceHanSansSC-Regular-GBpc-EUC-H';}
	.st12{font-size:20px;}
	.st13{letter-spacing:5;}
	.st14{font-size:18px;}
	.st15{letter-spacing:4;}
	.st16{font-size:20.0001px;}
	.st17{font-size:16px;}
</style>
<g id="diagram">
	<path class="st0" d="M491.4,529c-26-17.6-131.6-106.2-222-138.2c-47.2-16.6-85.6-30.6-120-9.4C102.8,410,127.8,459,148,476
		c27.8,23.4,127.6,56.2,247.8,52.8C426,536.2,491.4,529,491.4,529z"/>
	<rect x="143" y="149.2" class="st1" width="388.6" height="41.2"/>
	<rect x="215.8" y="529" class="st1" width="350.6" height="14.6"/>
	<line class="st2" x1="215.8" y1="529" x2="12.4" y2="529"/>
	<line class="st2" x1="17.6" y1="529" x2="40.6" y2="553.2"/>
	<line class="st2" x1="42" y1="529" x2="65.2" y2="553.2"/>
	<line class="st2" x1="66.6" y1="529" x2="89.6" y2="553.2"/>
	<line class="st2" x1="91" y1="529" x2="114" y2="553.2"/>
	<line class="st2" x1="115.4" y1="529" x2="138.4" y2="553.2"/>
	<line class="st2" x1="139.8" y1="529" x2="162.8" y2="553.2"/>
	<line class="st2" x1="164.2" y1="529" x2="187.2" y2="553.2"/>
	<line class="st2" x1="188.8" y1="529" x2="211.8" y2="553.2"/>
	<line class="st2" x1="213.2" y1="529" x2="236.2" y2="553.2"/>
	<line class="st2" x1="237.6" y1="529" x2="260.6" y2="553.2"/>
	<line class="st2" x1="262" y1="529" x2="285" y2="553.2"/>
	<line class="st2" x1="286.4" y1="529" x2="309.4" y2="553.2"/>
	<line class="st2" x1="310.8" y1="529" x2="334" y2="553.2"/>
	<line class="st2" x1="335.4" y1="529" x2="358.4" y2="553.2"/>
	<line class="st2" x1="359.8" y1="529" x2="382.8" y2="553.2"/>
	<line class="st2" x1="384.2" y1="529" x2="407.2" y2="553.2"/>
	<line class="st2" x1="408.6" y1="529" x2="431.6" y2="553.2"/>
	<line class="st2" x1="433" y1="529" x2="456" y2="553.2"/>
	<line class="st2" x1="457.6" y1="529" x2="480.6" y2="553.2"/>
	<line class="st2" x1="482" y1="529" x2="505" y2="553.2"/>
	<line class="st2" x1="506.4" y1="529" x2="529.4" y2="553.2"/>
	<line class="st2" x1="530.8" y1="529" x2="553.8" y2="553.2"/>
	<line class="st2" x1="555.2" y1="529" x2="578.2" y2="553.2"/>
	<path class="st3" d="M493.4,529c-17-5.6-235.4-89.6-342.2-55.6c-45.8,14.6-42.4,53.2-44.8,55.6"/>
	<g>
		<g>
			<line class="st2" x1="215.8" y1="495.8" x2="215.8" y2="520.2"/>
			<g>
				<polygon points="212.8,497.8 215.8,487 218.6,497.8 				"/>
			</g>
			<g>
				<polygon points="212.8,518.2 215.8,529 218.6,518.2 				"/>
			</g>
		</g>
	</g>
	<path class="st0" d="M548,169.8c-36-30-179.2-152-292-152c-98,0-158.6,33.4-164,98.6S154.6,229,252,239S463.4,215.2,548,169.8z"/>
	<path class="st3" d="M548,169.8c-35.8-4.2-185.8-65.6-292.8-61.4C126.6,113.6,70.6,185.8,90.6,260c16,59.8,126.2,82.4,190,67.2
		C375.8,304.4,476.8,253.8,548,169.8z"/>
	<rect x="492.2" y="469" class="st4" width="4.2" height="119.4"/>
	<circle class="st4" cx="488.8" cy="472" r="3.4"/>
	<circle class="st4" cx="488.8" cy="484.2" r="3.4"/>
	<circle class="st4" cx="488.8" cy="496.4" r="3.4"/>
	<circle class="st4" cx="488.8" cy="561.4" r="3.4"/>
	<circle class="st4" cx="488.8" cy="573.6" r="3.4"/>
	<circle class="st4" cx="488.8" cy="585.8" r="3.4"/>
	<line class="st2" x1="215.8" y1="529" x2="215.8" y2="585.8"/>
	<g>
		<g>
			<line class="st2" x1="224.6" y1="567.4" x2="483.4" y2="567.4"/>
			<g>
				<polygon points="226.6,570.4 215.8,567.4 226.6,564.6 				"/>
			</g>
			<g>
				<polygon points="481.4,570.4 492.2,567.4 481.4,564.6 				"/>
			</g>
		</g>
	</g>
	<line class="st5" x1="493.4" y1="529" x2="12.4" y2="454.8"/>
	<line class="st6" x1="531.6" y1="169.8" x2="143" y2="169.8"/>
	<line class="st7" x1="143" y1="169.8" x2="12.6" y2="169.8"/>
	<line class="st8" x1="149.2" y1="153.8" x2="164" y2="153.8"/>
	<line class="st8" x1="149.2" y1="160" x2="164" y2="160"/>
	<line class="st8" x1="149.2" y1="166.2" x2="164" y2="166.2"/>
	<line class="st8" x1="149.2" y1="172.4" x2="164" y2="172.4"/>
	<line class="st8" x1="149.2" y1="178.8" x2="164" y2="178.8"/>
	<line class="st8" x1="149.2" y1="185" x2="164" y2="185"/>
	<line class="st9" x1="548" y1="143.6" x2="548" y2="196.2"/>
</g>
<g id="text">
	<text transform="matrix(1 0 0 1 220 43.0001)" class="st10"><tspan x="0" y="0" class="st11 st12">9</tspan><tspan x="11.1" y="0" class="st11 st12 st13">0</tspan><tspan x="27.2" y="0" class="st11 st12">赫兹</tspan></text>
	<text transform="matrix(1 0 0 1 208 318.0001)" class="st10"><tspan x="0" y="0" class="st11 st12">15</tspan><tspan x="22.2" y="0" class="st11 st12 st13">0</tspan><tspan x="38.3" y="0" class="st11 st12">赫兹</tspan></text>
	<text transform="matrix(1 0 0 1 164 396.0001)" class="st10"><tspan x="0" y="0" class="st11 st12">9</tspan><tspan x="11.1" y="0" class="st11 st12 st13">0</tspan><tspan x="27.2" y="0" class="st11 st12">赫兹</tspan></text>
	<text transform="matrix(1 0 0 1 228 456.0001)" class="st10"><tspan x="0" y="0" class="st11 st14">15</tspan><tspan x="20" y="0" class="st11 st14 st15">0</tspan><tspan x="34.5" y="0" class="st11 st14">赫兹</tspan></text>
	<text transform="matrix(1 0 0 1 14 164.0001)" class="st11 st14">着陆航向信标台 </text>
	<text transform="matrix(4.489659e-11 -1 1 4.489659e-11 570 249.9991)" class="st11 st12">着陆航向信标天线</text>
	<text transform="matrix(1 0 0 1 442 460.0001)" class="st11 st12">下滑道天线</text>
	<text transform="matrix(0.9877 0.1564 -0.1564 0.9877 13.3243 448.0094)" class="st11 st16">下滑道</text>
	<text transform="matrix(1 0 0 1 226 516.0001)" class="st10"><tspan x="0" y="0" class="st11 st17">5</tspan><tspan x="8.9" y="0" class="st11 st17 st15">0</tspan><tspan x="21.8" y="0" class="st11 st17">英尺</tspan></text>
	<text transform="matrix(1 0 0 1 310 588.0001)" class="st10"><tspan x="0" y="0" class="st11 st17 st15">约</tspan><tspan x="20" y="0" class="st11 st17">100</tspan><tspan x="46.6" y="0" class="st11 st17 st15">0</tspan><tspan x="59.5" y="0" class="st11 st17">英尺</tspan></text>
</g>
</svg>
